<svg width="292" height="52" viewBox="0 0 292 52" fill="none" xmlns="http://www.w3.org/2000/svg">
<rect width="292" height="52" fill="#5ECE7B"/>
<path d="M98.2475 19.64H99.9435L104.36 31H102.472L101.272 27.912H96.8875L95.7035 31H93.7995L98.2475 19.64ZM100.92 26.584L99.0955 21.608L97.2075 26.584H100.92ZM105.764 31V19.64H109.796C111.023 19.64 112.047 19.896 112.868 20.408C113.69 20.9093 114.303 21.592 114.708 22.456C115.124 23.3093 115.332 24.2587 115.332 25.304C115.332 26.456 115.103 27.4587 114.644 28.312C114.196 29.1653 113.556 29.8267 112.724 30.296C111.892 30.7653 110.916 31 109.796 31H105.764ZM113.508 25.304C113.508 24.504 113.359 23.8 113.06 23.192C112.772 22.5733 112.351 22.0933 111.796 21.752C111.252 21.4 110.586 21.224 109.796 21.224H107.556V29.416H109.796C110.596 29.416 111.268 29.2347 111.812 28.872C112.367 28.5093 112.788 28.0187 113.076 27.4C113.364 26.7813 113.508 26.0827 113.508 25.304ZM117.218 31V19.64H121.25C122.476 19.64 123.5 19.896 124.322 20.408C125.143 20.9093 125.756 21.592 126.162 22.456C126.578 23.3093 126.786 24.2587 126.786 25.304C126.786 26.456 126.556 27.4587 126.098 28.312C125.65 29.1653 125.01 29.8267 124.178 30.296C123.346 30.7653 122.37 31 121.25 31H117.218ZM124.962 25.304C124.962 24.504 124.812 23.8 124.514 23.192C124.226 22.5733 123.804 22.0933 123.25 21.752C122.706 21.4 122.039 21.224 121.25 21.224H119.01V29.416H121.25C122.05 29.416 122.722 29.2347 123.266 28.872C123.82 28.5093 124.242 28.0187 124.53 27.4C124.818 26.7813 124.962 26.0827 124.962 25.304ZM140.475 21.224H136.699V31H134.891V21.224H131.099V19.64H140.475V21.224ZM146.422 31.08C145.601 31.08 144.859 30.92 144.198 30.6C143.537 30.28 142.966 29.848 142.486 29.304C142.006 28.7493 141.633 28.1307 141.366 27.448C141.11 26.7547 140.982 26.0453 140.982 25.32C140.982 24.5627 141.121 23.8427 141.398 23.16C141.675 22.4667 142.059 21.8533 142.55 21.32C143.041 20.776 143.617 20.3493 144.278 20.04C144.95 19.72 145.675 19.56 146.454 19.56C147.265 19.56 148.001 19.7253 148.662 20.056C149.334 20.3867 149.905 20.8293 150.374 21.384C150.854 21.9387 151.222 22.5573 151.478 23.24C151.745 23.9227 151.878 24.6213 151.878 25.336C151.878 26.0933 151.739 26.8187 151.462 27.512C151.195 28.1947 150.817 28.808 150.326 29.352C149.835 29.8853 149.254 30.3067 148.582 30.616C147.921 30.9253 147.201 31.08 146.422 31.08ZM142.806 25.32C142.806 25.8533 142.891 26.3707 143.062 26.872C143.233 27.3733 143.473 27.8213 143.782 28.216C144.102 28.6 144.486 28.904 144.934 29.128C145.382 29.352 145.883 29.464 146.438 29.464C147.014 29.464 147.526 29.3467 147.974 29.112C148.422 28.8773 148.795 28.5627 149.094 28.168C149.403 27.7627 149.638 27.3147 149.798 26.824C149.958 26.3227 150.038 25.8213 150.038 25.32C150.038 24.7867 149.953 24.2747 149.782 23.784C149.622 23.2827 149.382 22.84 149.062 22.456C148.742 22.0613 148.358 21.752 147.91 21.528C147.473 21.304 146.982 21.192 146.438 21.192C145.862 21.192 145.35 21.3093 144.902 21.544C144.454 21.7787 144.075 22.0933 143.766 22.488C143.457 22.8827 143.217 23.3253 143.046 23.816C142.886 24.3067 142.806 24.808 142.806 25.32ZM156.966 25.24C156.966 24.5467 157.089 23.8693 157.334 23.208C157.58 22.536 157.937 21.928 158.406 21.384C158.886 20.8293 159.468 20.392 160.15 20.072C160.833 19.7413 161.606 19.576 162.47 19.576C163.494 19.576 164.38 19.8107 165.126 20.28C165.873 20.7387 166.428 21.3307 166.79 22.056L165.382 23C165.169 22.5413 164.897 22.1787 164.566 21.912C164.246 21.6453 163.894 21.4587 163.51 21.352C163.137 21.2453 162.769 21.192 162.406 21.192C161.809 21.192 161.286 21.3147 160.838 21.56C160.39 21.7947 160.012 22.1093 159.702 22.504C159.404 22.8987 159.174 23.3413 159.014 23.832C158.865 24.3227 158.79 24.8133 158.79 25.304C158.79 25.848 158.881 26.376 159.062 26.888C159.244 27.3893 159.494 27.8373 159.814 28.232C160.145 28.616 160.534 28.92 160.982 29.144C161.43 29.368 161.921 29.48 162.454 29.48C162.817 29.48 163.196 29.416 163.59 29.288C163.985 29.16 164.348 28.9627 164.678 28.696C165.02 28.4187 165.286 28.056 165.478 27.608L166.966 28.456C166.732 29.0213 166.364 29.5013 165.862 29.896C165.372 30.2907 164.817 30.5893 164.198 30.792C163.59 30.9947 162.988 31.096 162.39 31.096C161.59 31.096 160.86 30.9307 160.198 30.6C159.537 30.2587 158.966 29.8107 158.486 29.256C158.006 28.6907 157.633 28.0613 157.366 27.368C157.1 26.664 156.966 25.9547 156.966 25.24ZM171.748 19.64H173.444L177.86 31H175.972L174.772 27.912H170.388L169.204 31H167.3L171.748 19.64ZM174.42 26.584L172.596 21.608L170.708 26.584H174.42ZM179.264 31V19.64H184.208C184.72 19.64 185.19 19.7467 185.616 19.96C186.043 20.1733 186.411 20.456 186.72 20.808C187.04 21.16 187.286 21.5547 187.456 21.992C187.638 22.4293 187.728 22.8773 187.728 23.336C187.728 23.8373 187.638 24.3173 187.456 24.776C187.275 25.2347 187.014 25.6293 186.672 25.96C186.342 26.2907 185.952 26.5307 185.504 26.68L188.176 31H186.16L183.696 27.048H181.056V31H179.264ZM181.056 25.464H184.192C184.523 25.464 184.816 25.368 185.072 25.176C185.328 24.984 185.531 24.728 185.68 24.408C185.83 24.0773 185.904 23.72 185.904 23.336C185.904 22.9413 185.819 22.5893 185.648 22.28C185.478 21.96 185.254 21.704 184.976 21.512C184.71 21.32 184.416 21.224 184.096 21.224H181.056V25.464ZM198.069 21.224H194.293V31H192.485V21.224H188.693V19.64H198.069V21.224Z" fill="white"/>
</svg>
